<svg width="43" height="44" viewBox="0 0 43 44" fill="none" xmlns="http://www.w3.org/2000/svg">
<path d="M28.9174 3.90903C28.8314 4.45795 28.7884 5.00688 28.7884 5.55581C28.7884 10.4962 32.7013 14.4902 37.5173 14.4902C38.0548 14.4902 38.5708 14.4265 39.1083 14.3387V32.0559C39.1083 39.5015 34.8083 43.9149 27.4984 43.9149H11.6121C4.29998 43.9149 0 39.5015 0 32.0559V15.8098C0 8.34436 4.29998 3.90903 11.6121 3.90903H28.9174ZM29.3495 17.259C28.7669 17.1931 28.1885 17.4566 27.8424 17.9396L22.6415 24.8122L16.6839 20.0256C16.3184 19.7401 15.8884 19.6281 15.4584 19.6742C15.0306 19.7401 14.6436 19.9794 14.3834 20.3308L8.02161 28.7864L7.89046 28.9841C7.52496 29.6845 7.69696 30.5847 8.34196 31.07C8.64296 31.2676 8.96546 31.3993 9.33095 31.3993C9.8276 31.4213 10.2984 31.1556 10.5994 30.7406L15.9959 23.6463L22.1234 28.3473L22.3169 28.4768C23.0049 28.8501 23.8649 28.6767 24.3594 28.0157L30.5728 19.8279L30.4869 19.8719C30.8308 19.3888 30.8953 18.774 30.6588 18.2251C30.4245 17.6761 29.9064 17.3029 29.3495 17.259ZM37.8185 0C40.678 0 43 2.37137 43 5.29167C43 8.21196 40.678 10.5833 37.8185 10.5833C34.959 10.5833 32.6371 8.21196 32.6371 5.29167C32.6371 2.37137 34.959 0 37.8185 0Z" fill="url(#paint0_linear_15_16)" fill-opacity="0.81"/>
<path fill-rule="evenodd" clip-rule="evenodd" d="M15.4584 19.6742C15.8884 19.6281 16.3184 19.7401 16.6839 20.0256L22.6415 24.8122L27.8424 17.9396C28.1885 17.4566 28.7669 17.1931 29.3495 17.259C29.9064 17.3029 30.4245 17.6761 30.6588 18.2251C30.8497 18.6679 30.8445 19.1537 30.6548 19.5786C30.6241 19.6473 30.5885 19.7145 30.5482 19.7796C30.544 19.7863 30.5398 19.793 30.5356 19.7997C30.52 19.824 30.5038 19.8481 30.4869 19.8719L30.5728 19.8279L24.3594 28.0157C23.8649 28.6767 23.0049 28.8501 22.3169 28.4768L22.1234 28.3473L15.996 23.6463L10.5994 30.7406C10.2984 31.1556 9.8276 31.4213 9.33095 31.3993C8.96546 31.3993 8.64296 31.2676 8.34196 31.07C7.69696 30.5847 7.52496 29.6845 7.89046 28.9841L8.02161 28.7864L14.3834 20.3308C14.6436 19.9794 15.0306 19.7401 15.4584 19.6742ZM9.30919 32.3992C8.69751 32.394 8.19267 32.1682 7.79314 31.9059L7.76636 31.8883L7.74077 31.8691C6.68185 31.0724 6.42561 29.6297 7.0039 28.5214L7.02821 28.4749L7.20475 28.2088L13.5798 19.7357C13.5806 19.7345 13.5815 19.7334 13.5823 19.7322C13.9936 19.1787 14.6099 18.7931 15.3063 18.6859L15.329 18.6824L15.3518 18.6799C16.0326 18.6069 16.7233 18.7874 17.2994 19.2374L17.3103 19.2459L22.4653 23.3879L27.038 17.3453C27.5868 16.5883 28.5026 16.1631 29.4452 16.2635C30.3806 16.3439 31.2062 16.9603 31.5785 17.8324C31.9419 18.6785 31.8537 19.6362 31.3396 20.3968L31.3694 20.4324L25.1601 28.6148C25.1594 28.6158 25.1586 28.6167 25.1579 28.6177C24.3652 29.6743 22.9626 29.9649 21.84 29.3558L21.7992 29.3337L21.5403 29.1603L16.1839 25.0509L11.4015 31.338C10.9422 31.965 10.1841 32.4295 9.30919 32.3992ZM28.9174 3.90903H11.6121C4.29998 3.90903 0 8.34436 0 15.8098V32.0559C0 39.5015 4.29998 43.9149 11.6121 43.9149H27.4984C34.8083 43.9149 39.1083 39.5015 39.1083 32.0559V14.3387C38.77 14.3939 38.4403 14.4396 38.1083 14.4659C37.9128 14.4814 37.7165 14.4902 37.5173 14.4902C32.7013 14.4902 28.7884 10.4962 28.7884 5.55581C28.7884 5.34021 28.795 5.12462 28.8083 4.90903C28.8288 4.57569 28.8651 4.24236 28.9174 3.90903ZM27.8065 4.90903C27.7944 5.12452 27.7884 5.34012 27.7884 5.55581C27.7884 11.0272 32.1281 15.4902 37.5173 15.4902C37.7182 15.4902 37.915 15.4824 38.1083 15.4687V32.0559C38.1083 35.5884 37.0913 38.2765 35.3295 40.0784C33.5707 41.8773 30.9505 42.9149 27.4984 42.9149H11.6121C8.15878 42.9149 5.53803 41.8772 3.77898 40.0784C2.017 38.2765 1 35.5884 1 32.0559V15.8098C1 12.2666 2.01747 9.56747 3.78035 7.75762C5.53979 5.95129 8.1602 4.90903 11.6121 4.90903H27.8065ZM42 5.29167C42 2.90371 40.106 1 37.8185 1C35.5311 1 33.6371 2.90371 33.6371 5.29167C33.6371 7.67962 35.5311 9.58333 37.8185 9.58333C40.106 9.58333 42 7.67962 42 5.29167ZM43 5.29167C43 2.37137 40.678 0 37.8185 0C34.959 0 32.6371 2.37137 32.6371 5.29167C32.6371 8.21196 34.959 10.5833 37.8185 10.5833C40.678 10.5833 43 8.21196 43 5.29167Z" fill="#FFD9D9"/>
<defs>
<linearGradient id="paint0_linear_15_16" x1="21.5" y1="0" x2="21.5" y2="43.9149" gradientUnits="userSpaceOnUse">
<stop stop-color="white"/>
<stop offset="1" stop-color="white" stop-opacity="0.45"/>
</linearGradient>
</defs>
</svg>
