<svg width="7" height="7" viewBox="0 0 7 7" fill="none" xmlns="http://www.w3.org/2000/svg">
<path d="M3.5 0C5.4285 0 7 1.568 7 3.5C7 5.4285 5.4285 7 3.5 7C1.568 7 0 5.4285 0 3.5C0 1.568 1.568 0 3.5 0ZM2.471 2.8105C2.3695 2.7055 2.2015 2.7055 2.1 2.807C1.995 2.912 1.995 3.0765 2.1 3.178L3.3145 4.3995C3.3635 4.4485 3.43 4.4765 3.5 4.4765C3.57 4.4765 3.6365 4.4485 3.6855 4.3995L4.9 3.178C4.9525 3.129 4.977 3.0625 4.977 2.996C4.977 2.926 4.9525 2.8595 4.9 2.807C4.795 2.7055 4.6305 2.7055 4.529 2.8105L3.5 3.843L2.471 2.8105Z" fill="white"/>
</svg>
