<svg width="33" height="33" viewBox="0 0 33 33" fill="none" xmlns="http://www.w3.org/2000/svg">
<path d="M23.8908 0.563477C29.3859 0.563477 32.5213 3.66657 32.5213 9.17781V24.2731C32.5213 29.752 29.402 32.8874 23.907 32.8874H8.81167C3.30044 32.8874 0.197342 29.752 0.197342 24.2731V9.17781C0.197342 3.66657 3.30044 0.563477 8.81167 0.563477H23.8908ZM16.3432 9.46872C15.5997 9.46872 15.0017 10.0667 15.0017 10.8102V15.3678H10.4279C10.0723 15.3678 9.73291 15.5133 9.47431 15.7557C9.23188 16.0143 9.08643 16.3521 9.08643 16.7093C9.08643 17.4527 9.68442 18.0507 10.4279 18.0669H15.0017V22.6407C15.0017 23.3842 15.5997 23.9822 16.3432 23.9822C17.0866 23.9822 17.6846 23.3842 17.6846 22.6407V18.0669H22.2746C23.018 18.0507 23.616 17.4527 23.616 16.7093C23.616 15.9658 23.018 15.3678 22.2746 15.3678H17.6846V10.8102C17.6846 10.0667 17.0866 9.46872 16.3432 9.46872Z" fill="url(#paint0_linear_22_57)"/>
<defs>
<linearGradient id="paint0_linear_22_57" x1="16.3593" y1="0.563477" x2="16.3593" y2="32.8874" gradientUnits="userSpaceOnUse">
<stop stop-color="white"/>
<stop offset="1" stop-color="#DCDCDC"/>
</linearGradient>
</defs>
</svg>
