<svg width="55" height="49" viewBox="0 0 55 49" fill="none" xmlns="http://www.w3.org/2000/svg">
<path d="M38.75 31.409L44.85 34.8635L42.975 38.0485L35 33.5405V24.5H38.75V31.409ZM55 31.85C55 41.3315 47.175 49 37.5 49C27.825 49 20 41.3315 20 31.85C20 31.017 20.075 30.2085 20.2 29.4H0V0H45V16.366C50.9 19.1345 55 25.0145 55 31.85ZM21.7 24.5C22.15 23.618 22.625 22.785 23.2 21.9765C22.975 22.05 22.75 22.05 22.5 22.05C18.35 22.05 15 18.767 15 14.7C15 10.633 18.35 7.35 22.5 7.35C26.65 7.35 30 10.633 30 14.7C30 15.3125 29.9 15.925 29.75 16.4885C32.1 15.3615 34.725 14.7 37.5 14.7C38.35 14.7 39.175 14.7735 40 14.896V9.8C38.6739 9.8 37.4021 9.28375 36.4645 8.36482C35.5268 7.4459 35 6.19956 35 4.9H10C10 7.6195 7.775 9.8 5 9.8V19.6C6.32608 19.6 7.59785 20.1162 8.53553 21.0352C9.47322 21.9541 10 23.2004 10 24.5H21.7ZM50 31.85C50 25.088 44.4 19.6 37.5 19.6C30.6 19.6 25 25.088 25 31.85C25 38.612 30.6 44.1 37.5 44.1C44.4 44.1 50 38.612 50 31.85Z" fill="url(#paint0_linear_22_28)" fill-opacity="0.81"/>
<defs>
<linearGradient id="paint0_linear_22_28" x1="27.5" y1="0" x2="27.5" y2="49" gradientUnits="userSpaceOnUse">
<stop stop-color="white"/>
<stop offset="1" stop-color="white" stop-opacity="0.45"/>
</linearGradient>
</defs>
</svg>
