<svg width="22" height="16" viewBox="0 0 22 16" fill="none" xmlns="http://www.w3.org/2000/svg">
<path fill-rule="evenodd" clip-rule="evenodd" d="M0 1.14286C0 0.511675 0.492487 0 1.1 0H20.9C21.5075 0 22 0.511675 22 1.14286C22 1.77404 21.5075 2.28571 20.9 2.28571H1.1C0.492487 2.28571 0 1.77404 0 1.14286ZM0 8C0 7.36882 0.492487 6.85714 1.1 6.85714H20.9C21.5075 6.85714 22 7.36882 22 8C22 8.63118 21.5075 9.14286 20.9 9.14286H1.1C0.492487 9.14286 0 8.63118 0 8ZM0 14.8571C0 14.226 0.492487 13.7143 1.1 13.7143H20.9C21.5075 13.7143 22 14.226 22 14.8571C22 15.4883 21.5075 16 20.9 16H1.1C0.492487 16 0 15.4883 0 14.8571Z" fill="#D7D5D5"/>
</svg>
