<svg width="22" height="23" viewBox="0 0 22 23" fill="none" xmlns="http://www.w3.org/2000/svg">
<path fill-rule="evenodd" clip-rule="evenodd" d="M22 11.4991C22 5.14878 17.0741 0 11 0C8.08262 0 5.28473 1.21163 3.22182 3.36836C1.15892 5.52508 0 8.45023 0 11.5003C7.5206e-05 13.0105 0.284673 14.506 0.837544 15.9012C1.39042 17.2965 2.20073 18.5642 3.22223 19.6321C4.24373 20.6999 5.4564 21.5469 6.79101 22.1248C8.12562 22.7027 9.55603 23.0001 11.0006 23C12.4451 22.9999 13.8755 22.7024 15.21 22.1244C16.5446 21.5463 17.7572 20.6992 18.7786 19.6312C19.8 18.5633 20.6102 17.2954 21.1629 15.9001C21.7156 14.5048 22.0001 13.0093 22 11.4991ZM1 11.5002C1.00001 8.70142 2.0639 6.02568 3.94448 4.05957C5.82362 2.09496 8.36255 1 11 1C16.4805 1 21 5.65882 21 11.4991C21.0001 12.884 20.7392 14.2545 20.2332 15.5318C19.7272 16.8091 18.9867 17.9668 18.0559 18.94C17.1252 19.9132 16.0227 20.6826 14.8126 21.2067C13.6026 21.7308 12.3074 21.9999 11.0005 22C9.69363 22.0001 8.39839 21.7311 7.18835 21.2071C5.97819 20.6832 4.87563 19.9138 3.94484 18.9408C3.01397 17.9677 2.27331 16.81 1.76722 15.5328C1.26111 14.2556 1.00008 12.8852 1 11.5002ZM12 1.3947V9.84917L19.2346 6.06734L19.6833 6.99774C20.3576 8.39618 20.708 9.93803 20.7083 11.5001C20.708 14.1657 19.6953 16.7308 17.8799 18.6286C16.0631 20.5278 13.5893 21.6035 11 21.6035C9.71875 21.6035 8.45118 21.3396 7.27007 20.8281C6.08908 20.3167 5.01897 19.5683 4.11963 18.6281C3.22037 17.6879 2.50927 16.5742 2.02486 15.3515C1.54047 14.1289 1.29167 12.82 1.29167 11.4991C1.29167 10.1782 1.54047 8.86926 2.02486 7.64666C2.50927 6.424 3.22037 5.31026 4.11963 4.3701C5.01897 3.42985 6.08908 2.68151 7.27007 2.17008C8.45118 1.6586 9.71875 1.3947 11 1.3947L12 1.3947ZM11 11.5003V2.3947C10.6652 2.3947 10.3313 2.41489 10 2.45492C9.1998 2.55163 8.41466 2.76415 7.66746 3.08773C6.61092 3.54527 5.65092 4.21589 4.84228 5.06132C4.03363 5.90674 3.39218 6.9104 2.95455 8.015C2.51691 9.11959 2.29167 10.3035 2.29167 11.4991C2.29167 12.6947 2.51691 13.8786 2.95455 14.9832C3.39218 16.0878 4.03363 17.0915 4.84228 17.9369C5.65092 18.7823 6.61092 19.4529 7.66746 19.9105C8.72401 20.368 9.85641 20.6035 11 20.6035C13.3094 20.6035 15.5242 19.6445 17.1573 17.9373C18.7904 16.2302 19.708 13.9147 19.7083 11.5003C19.7081 10.4252 19.5245 9.36156 19.1687 8.35855C19.0569 8.04322 18.928 7.73388 18.7825 7.43207L11 11.5003Z" fill="#FFD9D9"/>
</svg>
