<svg width="47" height="47" viewBox="0 0 47 47" fill="none" xmlns="http://www.w3.org/2000/svg">
<path d="M0 8.24561V38.6909H24.2157C23.7171 37.0536 23.4636 35.3406 23.4648 33.6167H9.38592C9.38592 32.271 8.89149 30.9803 8.01138 30.0287C7.13128 29.0771 5.93761 28.5425 4.69296 28.5425V18.3941C7.29755 18.3941 9.38592 16.136 9.38592 13.3198H32.8507C32.8507 14.6656 33.3452 15.9562 34.2253 16.9078C35.1054 17.8594 36.299 18.3941 37.5437 18.3941V18.5463C39.1158 18.5463 40.688 18.8507 42.2366 19.4089V8.24561H0ZM21.1183 15.8569C17.1293 15.9331 14.0789 19.1552 14.0789 23.4683C14.0789 27.7814 17.1293 30.9274 21.1183 31.0796C22.01 31.0796 22.9251 30.8766 23.7933 30.4961C24.4269 27.7053 25.4828 25.0667 28.0874 22.4788C27.8058 19.1044 24.8492 15.7808 21.1183 15.8569ZM43.7149 24.1533L34.634 34.048L31.4663 30.5722L28.1578 34.1749L34.6106 41.2281L47 27.7306L43.7149 24.1533Z" fill="url(#paint0_linear_18_38)" fill-opacity="0.81"/>
<path fill-rule="evenodd" clip-rule="evenodd" d="M4.69296 28.5425V18.3941C7.29755 18.3941 9.38592 16.136 9.38592 13.3198H32.8507C32.8507 14.6656 33.3452 15.9562 34.2253 16.9078C35.1054 17.8594 36.299 18.3941 37.5437 18.3941V18.5463C38.7785 18.5463 40.0132 18.7341 41.2366 19.0851C41.5709 19.181 41.9043 19.2891 42.2366 19.4089V8.24561H0V38.6909H24.2157C24.1151 38.3605 24.0244 38.027 23.9438 37.6909C23.627 36.3696 23.4658 35.0089 23.4648 33.6411C23.4648 33.633 23.4648 33.6248 23.4648 33.6167H9.38592C9.38592 32.271 8.89149 30.9803 8.01138 30.0287C7.13128 29.0771 5.93761 28.5425 4.69296 28.5425ZM22.4912 34.6167H8.38592V33.6167C8.38592 32.5121 7.97934 31.4668 7.27724 30.7077C6.57756 29.9512 5.64607 29.5425 4.69296 29.5425H3.69296V17.3941H4.69296C6.67315 17.3941 8.38592 15.6587 8.38592 13.3198V12.3198H33.8507V13.3198C33.8507 14.4245 34.2573 15.4697 34.9594 16.2289C35.6591 16.9854 36.5906 17.3941 37.5437 17.3941H38.5437V17.5839C39.4488 17.6516 40.3479 17.8095 41.2366 18.0474V9.24561H1V37.6909H22.9171C22.6892 36.6822 22.5466 35.6532 22.4912 34.6167ZM21.1387 16.8567L21.1374 16.8568C17.741 16.9216 15.0789 19.6509 15.0789 23.4683C15.0789 27.2609 17.7183 29.9394 21.1371 30.0796C21.7256 30.0773 22.3373 29.9686 22.9408 29.7577C23.5886 27.1468 24.6672 24.6055 27.0367 22.1222C26.5846 19.3405 24.0929 16.7965 21.1387 16.8567ZM28.0874 22.4788C25.4828 25.0667 24.4269 27.7053 23.7933 30.4961C22.9251 30.8766 22.01 31.0796 21.1183 31.0796C17.1293 30.9274 14.0789 27.7814 14.0789 23.4683C14.0789 19.1552 17.1293 15.9331 21.1183 15.8569C24.8492 15.7808 27.8058 19.1044 28.0874 22.4788ZM31.4663 30.5722L28.1578 34.1749L34.6106 41.2281L47 27.7306L43.7149 24.1533L34.634 34.048L31.4663 30.5722ZM43.7151 25.632L34.6315 35.5298L31.4635 32.0537L29.5143 34.1762L34.6118 39.7479L45.6425 27.7308L43.7151 25.632Z" fill="#FFD9D9"/>
<defs>
<linearGradient id="paint0_linear_18_38" x1="23.5" y1="8.24561" x2="23.5" y2="41.2281" gradientUnits="userSpaceOnUse">
<stop stop-color="white"/>
<stop offset="1" stop-color="white" stop-opacity="0.45"/>
</linearGradient>
</defs>
</svg>
