<svg width="18" height="20" viewBox="0 0 18 20" fill="none" xmlns="http://www.w3.org/2000/svg">
<path fill-rule="evenodd" clip-rule="evenodd" d="M4.41373 1.86569C5.60832 0.671109 7.22851 0 8.91791 0C10.6073 0 12.2275 0.671108 13.4221 1.86569C14.6167 3.06027 15.2878 4.68047 15.2878 6.36986C15.2878 9.15476 15.8828 10.8517 16.4062 11.8112C16.6696 12.2942 16.922 12.6035 17.0885 12.7792C17.172 12.8674 17.2349 12.9229 17.2678 12.9504C17.2793 12.96 17.2872 12.9662 17.2911 12.9692C17.7422 13.2841 17.9411 13.8543 17.7811 14.3829C17.6184 14.9202 17.1231 15.2877 16.5617 15.2877H1.27407C0.712674 15.2877 0.217447 14.9202 0.0547627 14.3829C-0.105263 13.8543 0.0935808 13.2841 0.544704 12.9692C0.548587 12.9662 0.556474 12.96 0.567976 12.9504C0.600937 12.9229 0.663771 12.8674 0.747344 12.7792C0.913825 12.6035 1.16618 12.2942 1.42963 11.8112C1.95301 10.8517 2.54804 9.15476 2.54804 6.36986C2.54804 4.68047 3.21915 3.06027 4.41373 1.86569ZM0.565672 12.9548C0.565704 12.9548 0.565734 12.9548 0.565765 12.9548C0.565762 12.9548 0.565758 12.9548 0.565755 12.9548L0.565672 12.9548ZM3.81857 12.7397H14.0172C13.3295 11.3611 12.7398 9.31502 12.7398 6.36986C12.7398 5.35623 12.3372 4.38411 11.6204 3.66736C10.9037 2.95061 9.93154 2.54795 8.91791 2.54795C7.90427 2.54795 6.93215 2.95061 6.2154 3.66736C5.49865 4.38411 5.09599 5.35623 5.09599 6.36986C5.09599 9.31502 4.50634 11.3611 3.81857 12.7397ZM6.80936 16.309C7.41798 15.9559 8.19755 16.1631 8.55059 16.7717C8.58793 16.8361 8.64151 16.8895 8.70597 16.9266C8.77044 16.9637 8.84353 16.9833 8.91792 16.9833C8.99232 16.9833 9.06541 16.9637 9.12988 16.9266C9.19434 16.8895 9.24792 16.8361 9.28525 16.7717C9.6383 16.1631 10.4179 15.9559 11.0265 16.309C11.6351 16.662 11.8423 17.4416 11.4892 18.0502C11.2279 18.5007 10.8529 18.8746 10.4016 19.1345C9.95032 19.3944 9.43869 19.5312 8.91792 19.5312C8.39716 19.5312 7.88552 19.3944 7.43426 19.1345C6.98299 18.8746 6.60793 18.5007 6.34662 18.0502C5.99358 17.4416 6.20075 16.662 6.80936 16.309Z" fill="white" fill-opacity="0.97"/>
<path d="M17.8356 4.24658C17.8356 6.59189 15.9344 8.49315 13.589 8.49315C11.2437 8.49315 9.34246 6.59189 9.34246 4.24658C9.34246 1.90126 11.2437 0 13.589 0C15.9344 0 17.8356 1.90126 17.8356 4.24658Z" fill="#FFE600"/>
</svg>
