<svg width="41" height="33" viewBox="0 0 41 33" fill="none" xmlns="http://www.w3.org/2000/svg">
<path fill-rule="evenodd" clip-rule="evenodd" d="M8.18987 1.00006H2.73336C1.78179 1.00006 1.00003 1.77782 1.00003 2.75006V8.24744L1 8.25325L1.00006 8.26086L1.00003 22C1.00003 22.9723 1.78179 23.75 2.73336 23.75H32.797L32.8023 23.7501L32.8102 23.75L38.2666 23.75C39.2182 23.75 40 22.9723 40 22V16.5025L40 16.497L39.9999 16.4892L40 8.25314L40 8.24757L39.9999 8.23979L40 2.75006C40 1.77782 39.2182 1.00006 38.2666 1.00006H32.8024L32.7969 1.00003L32.7892 1.00009L8.20306 1.00006L8.19755 1.00003L8.18987 1.00006ZM8.60598 1.75006H32.394L32.5341 2.58437C32.7821 4.06022 33.4798 5.43274 34.5443 6.50373C35.6087 7.57463 36.9712 8.27503 38.4343 8.52385L39.2666 8.6654V16.0847L38.4343 16.2262C36.9712 16.4751 35.6087 17.1755 34.5443 18.2464C33.4798 19.3174 32.7821 20.6899 32.5341 22.1657L32.394 23H8.60598L8.46581 22.1657C8.37568 21.6292 8.22566 21.1035 8.01779 20.5986C7.65547 19.7186 7.12458 18.9193 6.45571 18.2464L7.16496 17.5414C7.9264 18.3075 8.5304 19.217 8.94249 20.2179C9.17891 20.7921 9.34951 21.39 9.45199 22H31.548C31.8299 20.3221 32.6232 18.7606 33.835 17.5414C35.0468 16.3222 36.5989 15.524 38.2666 15.2404V9.5097C36.5989 9.22608 35.0468 8.42788 33.835 7.20868C32.6232 5.98948 31.8299 4.42798 31.548 2.75006H9.45199C9.34951 3.36004 9.17891 3.95795 8.94249 4.53219C8.5304 5.53313 7.9264 6.4426 7.16496 7.20868C6.40352 7.97477 5.49956 8.58246 4.50469 8.99706C3.93392 9.23492 3.33965 9.40655 2.73336 9.50966V15.2404C3.33965 15.3435 3.93392 15.5152 4.50469 15.753C5.49956 16.1676 6.40352 16.7753 7.16496 17.5414L6.45571 18.2464C5.78685 17.5734 4.99313 17.0399 4.12002 16.6761C3.6191 16.4673 3.09764 16.3167 2.5657 16.2263L1.73336 16.0847V8.66536L2.5657 8.52381C3.09764 8.43335 3.6191 8.28276 4.12002 8.074C4.99313 7.71015 5.78685 7.17667 6.45571 6.50373C7.12458 5.83078 7.65547 5.03154 8.01779 4.15149C8.22566 3.64661 8.37568 3.12084 8.46581 2.58437L8.60598 1.75006ZM39.2666 1.75006V7.35514L33.6955 1.75006H39.2666ZM39.2666 23H33.6955L39.2666 17.395V23ZM7.9488 23H1.73336V16.7567L2.98478 17.0818C3.27672 17.1576 3.56364 17.2541 3.84336 17.3706C4.62837 17.6978 5.34125 18.1771 5.94146 18.781C6.54165 19.3849 7.01743 20.1014 7.34192 20.8896C7.45756 21.1704 7.55318 21.4585 7.62837 21.7515L7.9488 23ZM3.73336 18.4172C3.64305 18.3735 3.55147 18.3324 3.45869 18.2937C3.22235 18.1952 2.97996 18.1137 2.73336 18.0497V22H6.65976C6.59609 21.7519 6.51512 21.5081 6.41723 21.2703C6.37966 21.179 6.3397 21.0889 6.2974 21C6.03041 20.4389 5.67041 19.9268 5.2322 19.486C4.79558 19.0467 4.28867 18.6855 3.73336 18.4172ZM7.30447 1.75006L1.73336 7.35514V1.75006H7.30447ZM2.73336 6.10352e-05C1.22378 6.10352e-05 3.05176e-05 1.23127 3.05176e-05 2.75006V22C3.05176e-05 23.5188 1.22378 24.75 2.73336 24.75H38.2666C39.7762 24.75 41 23.5188 41 22V2.75006C41 1.23128 39.7762 6.10352e-05 38.2666 6.10352e-05H2.73336ZM38.2666 4.93051V2.75006H36.0994L38.2666 4.93051ZM36.0994 22H38.2666V19.8196L36.0994 22ZM4.9006 2.75006H2.73336V4.93051L4.9006 2.75006ZM14.0333 12.375C14.0333 8.79094 16.9228 5.87505 20.5 5.87505C24.0772 5.87505 26.9666 8.79094 26.9666 12.375C26.9666 15.9592 24.0772 18.875 20.5 18.875C16.9228 18.875 14.0333 15.9592 14.0333 12.375ZM20.5 5.12506C16.5293 5.12506 13.3 8.36525 13.3 12.375C13.3 16.3848 16.5293 19.625 20.5 19.625C24.4707 19.625 27.7 16.3848 27.7 12.375C27.7 8.36525 24.4707 5.12506 20.5 5.12506ZM4.10002 27.125C3.90324 27.125 3.73336 27.2872 3.73336 27.5C3.73336 27.7129 3.90324 27.875 4.10002 27.875H36.9C37.0967 27.875 37.2666 27.7129 37.2666 27.5C37.2666 27.2872 37.0967 27.125 36.9 27.125H4.10002ZM6.83335 31.25C6.63657 31.25 6.46669 31.4122 6.46669 31.625C6.46669 31.8379 6.63657 32 6.83335 32H34.1666C34.3634 32 34.5333 31.8379 34.5333 31.625C34.5333 31.4122 34.3634 31.25 34.1666 31.25H6.83335ZM15.0333 12.375C15.0333 9.33749 17.4808 6.87505 20.5 6.87505C23.5191 6.87505 25.9666 9.33749 25.9666 12.375C25.9666 15.4126 23.5191 17.875 20.5 17.875C17.4808 17.875 15.0333 15.4126 15.0333 12.375ZM20.5 4.12506C15.9713 4.12506 12.3 7.8187 12.3 12.375C12.3 16.9314 15.9713 20.625 20.5 20.625C25.0287 20.625 28.7 16.9314 28.7 12.375C28.7 7.8187 25.0287 4.12506 20.5 4.12506ZM4.10002 26.125C3.34523 26.125 2.73336 26.7406 2.73336 27.5C2.73336 28.2594 3.34523 28.875 4.10002 28.875H36.9C37.6547 28.875 38.2666 28.2594 38.2666 27.5C38.2666 26.7406 37.6547 26.125 36.9 26.125H4.10002ZM6.83335 30.25C6.07856 30.25 5.46669 30.8656 5.46669 31.625C5.46669 32.3844 6.07856 33 6.83335 33H34.1666C34.9214 33 35.5333 32.3844 35.5333 31.625C35.5333 30.8656 34.9214 30.25 34.1666 30.25H6.83335Z" fill="#FFD9D9"/>
</svg>
