<svg width="33" height="33" viewBox="0 0 33 33" fill="none" xmlns="http://www.w3.org/2000/svg">
<path d="M15.4992 8.62812V1.80857C15.4992 1.08345 16.0486 0.479187 16.7435 0.479187C17.3657 0.479187 17.8928 0.986937 17.9763 1.63009L17.9878 1.80857V8.62812L25.7121 8.62863C29.5582 8.62863 32.7181 11.9439 32.8955 16.0785L32.9033 16.4454V25.0175C32.9033 29.1811 29.8534 32.5988 26.0645 32.7907L25.7283 32.7992H7.75838C3.9123 32.7992 0.767705 29.5005 0.591154 25.3507L0.583336 24.9824V16.4279C0.583336 12.2643 3.61804 8.83002 7.40608 8.63717L7.74222 8.62863H15.499V19.5194L12.9134 16.7089C12.4286 16.1819 11.6368 16.1819 11.152 16.7089C10.9096 16.9724 10.7965 17.3237 10.7965 17.675C10.7965 17.942 10.8689 18.2203 11.0219 18.4558L11.152 18.6236L15.8545 23.7528C16.0808 24.0163 16.404 24.1568 16.7433 24.1568C17.0127 24.1568 17.282 24.0592 17.4952 23.8742L17.616 23.7528L22.3185 18.6236C22.8033 18.0966 22.8033 17.2359 22.3185 16.7089C21.8778 16.2298 21.1833 16.1863 20.6965 16.5783L20.5571 16.7089L17.9877 19.5194V8.62863L15.4992 8.62812Z" fill="url(#paint0_linear_22_61)"/>
<defs>
<linearGradient id="paint0_linear_22_61" x1="16.7433" y1="0.479187" x2="16.7433" y2="32.7992" gradientUnits="userSpaceOnUse">
<stop stop-color="white"/>
<stop offset="1" stop-color="#DCDCDC"/>
</linearGradient>
</defs>
</svg>
