<svg width="104" height="15" viewBox="0 0 104 15" fill="none" xmlns="http://www.w3.org/2000/svg">
<path d="M5.29202 9.69804L0.468018 0.950038H2.79002L6.30002 7.53804L9.75602 0.950038H12.06L7.18202 9.69804V14H5.29202V9.69804Z" fill="white"/>
<path d="M11.3736 10.166C11.3736 9.41004 11.5536 8.73204 11.9136 8.13204C12.2736 7.52004 12.7716 7.04004 13.4076 6.69204C14.0436 6.34404 14.7696 6.17004 15.5856 6.17004C16.4136 6.17004 17.1336 6.34404 17.7456 6.69204C18.3696 7.04004 18.8496 7.52004 19.1856 8.13204C19.5336 8.73204 19.7076 9.41004 19.7076 10.166C19.7076 10.922 19.5336 11.606 19.1856 12.218C18.8376 12.818 18.3516 13.298 17.7276 13.658C17.1156 14.006 16.3896 14.18 15.5496 14.18C14.7576 14.18 14.0436 14.018 13.4076 13.694C12.7836 13.37 12.2856 12.908 11.9136 12.308C11.5536 11.696 11.3736 10.982 11.3736 10.166ZM13.2096 10.184C13.2096 10.652 13.3116 11.078 13.5156 11.462C13.7196 11.834 13.9956 12.134 14.3436 12.362C14.7036 12.578 15.0996 12.686 15.5316 12.686C16.2156 12.686 16.7736 12.446 17.2056 11.966C17.6496 11.486 17.8716 10.892 17.8716 10.184C17.8716 9.47604 17.6496 8.88204 17.2056 8.40204C16.7736 7.91004 16.2156 7.66404 15.5316 7.66404C15.0876 7.66404 14.6916 7.77804 14.3436 8.00604C13.9956 8.23404 13.7196 8.54004 13.5156 8.92404C13.3116 9.30804 13.2096 9.72804 13.2096 10.184Z" fill="white"/>
<path d="M24.3125 14.306C23.6165 14.306 23.0465 14.096 22.6025 13.676C22.1585 13.256 21.9245 12.716 21.9005 12.056V6.47604H23.7185V11.408C23.7425 11.804 23.8565 12.122 24.0605 12.362C24.2645 12.602 24.5885 12.734 25.0325 12.758C25.4405 12.758 25.8065 12.638 26.1305 12.398C26.4545 12.146 26.7065 11.804 26.8865 11.372C27.0785 10.94 27.1745 10.454 27.1745 9.91404V6.47604H28.9925V14H27.3545L27.2465 12.614C26.9945 13.106 26.6045 13.514 26.0765 13.838C25.5605 14.15 24.9725 14.306 24.3125 14.306Z" fill="white"/>
<path d="M33.4698 6.47604L33.6138 8.25804C33.8298 7.82604 34.1178 7.45404 34.4778 7.14204C34.8378 6.83004 35.2098 6.59004 35.5938 6.42204C35.9898 6.25404 36.3258 6.17004 36.6018 6.17004L36.5118 7.97004C35.9478 7.93404 35.4498 8.04204 35.0178 8.29404C34.5978 8.54604 34.2678 8.88204 34.0278 9.30204C33.7878 9.72204 33.6678 10.172 33.6678 10.652V14H31.8498V6.47604H33.4698Z" fill="white"/>
<path d="M44.9131 0.950038C46.2331 0.950038 47.2711 1.22004 48.0271 1.76004C48.7831 2.30004 49.1611 3.12804 49.1611 4.24404C49.1611 4.92804 49.0051 5.52204 48.6931 6.02604C48.3931 6.53004 47.9731 6.92604 47.4331 7.21404C48.1531 7.50204 48.7291 7.91004 49.1611 8.43804C49.5931 8.96604 49.8091 9.59004 49.8091 10.31C49.8091 11.186 49.5991 11.894 49.1791 12.434C48.7591 12.974 48.2131 13.37 47.5411 13.622C46.8811 13.874 46.1731 14 45.4171 14H41.4751V0.950038H44.9131ZM45.3271 12.254C46.0351 12.254 46.6351 12.098 47.1271 11.786C47.6191 11.474 47.8651 10.988 47.8651 10.328C47.8651 9.84804 47.7331 9.47004 47.4691 9.19404C47.2051 8.91804 46.8691 8.72004 46.4611 8.60004C46.0531 8.48004 45.6331 8.42004 45.2011 8.42004H43.3471V12.254H45.3271ZM45.2551 6.60204C45.9391 6.60204 46.4371 6.41004 46.7491 6.02604C47.0611 5.63004 47.2171 5.16804 47.2171 4.64004C47.2171 3.99204 47.0131 3.51804 46.6051 3.21804C46.2091 2.91804 45.6751 2.76804 45.0031 2.76804H43.3471V6.60204H45.2551Z" fill="white"/>
<path d="M55.408 14.18C54.7 14.18 54.058 14.03 53.482 13.73C52.906 13.43 52.45 12.992 52.114 12.416C51.778 11.828 51.61 11.102 51.61 10.238C51.61 9.39804 51.784 8.67804 52.132 8.07804C52.492 7.46604 52.96 6.99804 53.536 6.67404C54.124 6.33804 54.76 6.17004 55.444 6.17004C56.14 6.17004 56.716 6.31404 57.172 6.60204C57.628 6.87804 57.988 7.21404 58.252 7.61004L58.378 6.47604H60.052V14H58.234V12.812C58.102 12.98 57.904 13.172 57.64 13.388C57.376 13.604 57.058 13.79 56.686 13.946C56.314 14.102 55.888 14.18 55.408 14.18ZM55.894 12.686C56.494 12.686 56.998 12.53 57.406 12.218C57.826 11.894 58.102 11.456 58.234 10.904V9.35604C58.09 8.86404 57.796 8.45604 57.352 8.13204C56.92 7.80804 56.416 7.64604 55.84 7.64604C55.408 7.64604 55.012 7.75404 54.652 7.97004C54.292 8.17404 54.004 8.46804 53.788 8.85204C53.572 9.22404 53.464 9.65604 53.464 10.148C53.464 10.628 53.572 11.06 53.788 11.444C54.016 11.828 54.316 12.134 54.688 12.362C55.06 12.578 55.462 12.686 55.894 12.686Z" fill="white"/>
<path d="M62.8927 0.0140381H64.7107V14H62.8927V0.0140381Z" fill="white"/>
<path d="M70.7009 14.18C69.9929 14.18 69.3509 14.03 68.7749 13.73C68.1989 13.43 67.7429 12.992 67.4069 12.416C67.0709 11.828 66.9029 11.102 66.9029 10.238C66.9029 9.39804 67.0769 8.67804 67.4249 8.07804C67.7849 7.46604 68.2529 6.99804 68.8289 6.67404C69.4169 6.33804 70.0529 6.17004 70.7369 6.17004C71.4329 6.17004 72.0089 6.31404 72.4649 6.60204C72.9209 6.87804 73.2809 7.21404 73.5449 7.61004L73.6709 6.47604H75.3449V14H73.5269V12.812C73.3949 12.98 73.1969 13.172 72.9329 13.388C72.6689 13.604 72.3509 13.79 71.9789 13.946C71.6069 14.102 71.1809 14.18 70.7009 14.18ZM71.1869 12.686C71.7869 12.686 72.2909 12.53 72.6989 12.218C73.1189 11.894 73.3949 11.456 73.5269 10.904V9.35604C73.3829 8.86404 73.0889 8.45604 72.6449 8.13204C72.2129 7.80804 71.7089 7.64604 71.1329 7.64604C70.7009 7.64604 70.3049 7.75404 69.9449 7.97004C69.5849 8.17404 69.2969 8.46804 69.0809 8.85204C68.8649 9.22404 68.7569 9.65604 68.7569 10.148C68.7569 10.628 68.8649 11.06 69.0809 11.444C69.3089 11.828 69.6089 12.134 69.9809 12.362C70.3529 12.578 70.7549 12.686 71.1869 12.686Z" fill="white"/>
<path d="M79.8237 6.47604L79.9497 7.88004C80.2017 7.36404 80.5917 6.95604 81.1197 6.65604C81.6477 6.34404 82.2597 6.18804 82.9557 6.18804C83.6637 6.18804 84.2457 6.39804 84.7017 6.81804C85.1577 7.22604 85.3917 7.76604 85.4037 8.43804V14H83.5857V9.06804C83.5737 8.68404 83.4597 8.37204 83.2437 8.13204C83.0277 7.88004 82.6917 7.74804 82.2357 7.73604C81.5997 7.73604 81.0657 8.00004 80.6337 8.52804C80.2137 9.05604 80.0037 9.73404 80.0037 10.562V14H78.1857V6.47604H79.8237Z" fill="white"/>
<path d="M94.414 13.298C94.078 13.574 93.67 13.79 93.19 13.946C92.722 14.102 92.248 14.18 91.768 14.18C90.952 14.18 90.226 14.018 89.59 13.694C88.966 13.37 88.4799 12.914 88.132 12.326C87.784 11.738 87.61 11.042 87.61 10.238C87.61 9.42204 87.796 8.72004 88.168 8.13204C88.54 7.54404 89.026 7.09404 89.626 6.78204C90.238 6.45804 90.892 6.29604 91.588 6.29604C92.212 6.29604 92.7579 6.38004 93.226 6.54804C93.706 6.71604 94.12 6.95004 94.468 7.25004L93.568 8.42004C93.364 8.25204 93.1059 8.10204 92.794 7.97004C92.4819 7.83804 92.134 7.77204 91.75 7.77204C91.318 7.77204 90.922 7.88004 90.562 8.09604C90.214 8.31204 89.938 8.60604 89.734 8.97804C89.53 9.35004 89.428 9.77004 89.428 10.238C89.428 10.694 89.53 11.108 89.734 11.48C89.95 11.852 90.2439 12.146 90.616 12.362C91 12.578 91.4319 12.686 91.9119 12.686C92.224 12.686 92.512 12.638 92.776 12.542C93.052 12.446 93.292 12.32 93.496 12.164L94.414 13.298Z" fill="white"/>
<path d="M100.065 14.18C99.2012 14.18 98.4573 14.012 97.8333 13.676C97.2093 13.328 96.7292 12.854 96.3932 12.254C96.0573 11.642 95.8893 10.952 95.8893 10.184C95.8893 9.44004 96.0752 8.76804 96.4473 8.16804C96.8313 7.55604 97.3412 7.07004 97.9772 6.71004C98.6133 6.35004 99.3213 6.17004 100.101 6.17004C101.109 6.17004 101.943 6.46404 102.603 7.05204C103.275 7.62804 103.725 8.44404 103.953 9.50004L98.0673 11.534C98.2833 11.882 98.5652 12.152 98.9132 12.344C99.2732 12.536 99.6693 12.632 100.101 12.632C100.425 12.632 100.737 12.578 101.037 12.47C101.337 12.35 101.619 12.194 101.883 12.002L102.711 13.352C102.327 13.604 101.901 13.808 101.433 13.964C100.977 14.108 100.521 14.18 100.065 14.18ZM97.7073 10.454L101.901 8.92404C101.745 8.57604 101.511 8.27004 101.199 8.00604C100.899 7.74204 100.491 7.61004 99.9753 7.61004C99.3033 7.61004 98.7513 7.84404 98.3193 8.31204C97.8993 8.76804 97.6892 9.35604 97.6892 10.076C97.6892 10.208 97.6953 10.334 97.7073 10.454Z" fill="white"/>
</svg>
